<svg viewBox="0 0 24 24" xmlns="http://www.w3.org/2000/svg">
  <path
    fill="#EA4335"
    d="M12 2a10 10 0 0 1 8.66 5H12a5 5 0 0 0-4.33 2.5l-2.17-3.76A10 10 0 0 1 12 2Z"
  />
  <path
    fill="#FBBC05"
    d="M20.66 7A10 10 0 0 1 12 22l4.33-7.5A5 5 0 0 0 18.5 10h4.34c.1.65.16 1.32.16 2 0-1.72-.44-3.33-1.34-5Z"
  />
  <path
    fill="#34A853"
    d="M12 22A10 10 0 0 1 3.34 7h4.33A5 5 0 0 0 10 14.5l2.17 3.76A10 10 0 0 1 12 22Z"
  />
  <circle cx="12" cy="12" r="4" fill="#4285F4" />
  <circle cx="12" cy="12" r="1.8" fill="#ffffff" />
</svg>
